<svg id="visual" viewBox="0 0 960 540" width="960" height="540" xmlns="http://www.w3.org/2000/svg" xmlns:xlink="http://www.w3.org/1999/xlink" version="1.1"><rect x="0" y="0" width="960" height="540" fill="#040021"></rect><path d="M0 450L107 450L213 405L320 466L427 395L533 437L640 426L747 403L853 402L960 418L960 541L853 541L747 541L640 541L533 541L427 541L320 541L213 541L107 541L0 541Z" fill="#ffffff"></path><path d="M0 455L107 462L213 464L320 458L427 490L533 493L640 458L747 476L853 435L960 479L960 541L853 541L747 541L640 541L533 541L427 541L320 541L213 541L107 541L0 541Z" fill="#a5e2c9"></path><path d="M0 483L107 480L213 480L320 492L427 509L533 493L640 510L747 492L853 502L960 479L960 541L853 541L747 541L640 541L533 541L427 541L320 541L213 541L107 541L0 541Z" fill="#2fc296"></path></svg>