<svg id="visual" viewBox="0 0 960 540" width="960" height="540" xmlns="http://www.w3.org/2000/svg" xmlns:xlink="http://www.w3.org/1999/xlink" version="1.1"><path d="M0 450L11.5 453.5C23 457 46 464 68.8 460.3C91.7 456.7 114.3 442.3 137.2 435.3C160 428.3 183 428.7 205.8 435.2C228.7 441.7 251.3 454.3 274.2 461C297 467.7 320 468.3 342.8 466C365.7 463.7 388.3 458.3 411.2 452.5C434 446.7 457 440.3 480 444.8C503 449.3 526 464.7 548.8 473.5C571.7 482.3 594.3 484.7 617.2 478.3C640 472 663 457 685.8 453.8C708.7 450.7 731.3 459.3 754.2 463.5C777 467.7 800 467.3 822.8 468.2C845.7 469 868.3 471 891.2 466.3C914 461.7 937 450.3 948.5 444.7L960 439L960 541L948.5 541C937 541 914 541 891.2 541C868.3 541 845.7 541 822.8 541C800 541 777 541 754.2 541C731.3 541 708.7 541 685.8 541C663 541 640 541 617.2 541C594.3 541 571.7 541 548.8 541C526 541 503 541 480 541C457 541 434 541 411.2 541C388.3 541 365.7 541 342.8 541C320 541 297 541 274.2 541C251.3 541 228.7 541 205.8 541C183 541 160 541 137.2 541C114.3 541 91.7 541 68.8 541C46 541 23 541 11.5 541L0 541Z" fill="#00aaff" stroke-linecap="round" stroke-linejoin="miter"></path></svg>