<svg id="visual" viewBox="0 0 960 540" width="960" height="540" xmlns="http://www.w3.org/2000/svg" xmlns:xlink="http://www.w3.org/1999/xlink" version="1.1"><path d="M0 454L16 459.7C32 465.3 64 476.7 96 481.2C128 485.7 160 483.3 192 479.3C224 475.3 256 469.7 288 461.5C320 453.3 352 442.7 384 439C416 435.3 448 438.7 480 443.8C512 449 544 456 576 455.5C608 455 640 447 672 441.5C704 436 736 433 768 436.5C800 440 832 450 864 459.8C896 469.7 928 479.3 944 484.2L960 489L960 541L944 541C928 541 896 541 864 541C832 541 800 541 768 541C736 541 704 541 672 541C640 541 608 541 576 541C544 541 512 541 480 541C448 541 416 541 384 541C352 541 320 541 288 541C256 541 224 541 192 541C160 541 128 541 96 541C64 541 32 541 16 541L0 541Z" fill="#9044f4" stroke-linecap="round" stroke-linejoin="miter"></path></svg>