<svg id="visual" viewBox="0 0 960 540" width="960" height="540" xmlns="http://www.w3.org/2000/svg" xmlns:xlink="http://www.w3.org/1999/xlink" version="1.1"><path d="M0 77L17.8 73.3C35.7 69.7 71.3 62.3 106.8 64C142.3 65.7 177.7 76.3 213.2 79.5C248.7 82.7 284.3 78.3 320 72.5C355.7 66.7 391.3 59.3 426.8 55.3C462.3 51.3 497.7 50.7 533.2 54.5C568.7 58.3 604.3 66.7 640 70.3C675.7 74 711.3 73 746.8 68.5C782.3 64 817.7 56 853.2 52.3C888.7 48.7 924.3 49.3 942.2 49.7L960 50L960 0L942.2 0C924.3 0 888.7 0 853.2 0C817.7 0 782.3 0 746.8 0C711.3 0 675.7 0 640 0C604.3 0 568.7 0 533.2 0C497.7 0 462.3 0 426.8 0C391.3 0 355.7 0 320 0C284.3 0 248.7 0 213.2 0C177.7 0 142.3 0 106.8 0C71.3 0 35.7 0 17.8 0L0 0Z" fill="#30c494" stroke-linecap="round" stroke-linejoin="miter"></path></svg>