<svg id="visual" viewBox="0 0 960 540" width="960" height="540" xmlns="http://www.w3.org/2000/svg" xmlns:xlink="http://www.w3.org/1999/xlink" version="1.1"><path d="M0 379L22.8 394.2C45.7 409.3 91.3 439.7 137 447C182.7 454.3 228.3 438.7 274 428.5C319.7 418.3 365.3 413.7 411.2 410.7C457 407.7 503 406.3 548.8 417C594.7 427.7 640.3 450.3 686 462C731.7 473.7 777.3 474.3 823 467.3C868.7 460.3 914.3 445.7 937.2 438.3L960 431L960 541L937.2 541C914.3 541 868.7 541 823 541C777.3 541 731.7 541 686 541C640.3 541 594.7 541 548.8 541C503 541 457 541 411.2 541C365.3 541 319.7 541 274 541C228.3 541 182.7 541 137 541C91.3 541 45.7 541 22.8 541L0 541Z" fill="#C62368" stroke-linecap="round" stroke-linejoin="miter"></path></svg>