<svg id="visual" viewBox="0 0 960 540" width="960" height="540" xmlns="http://www.w3.org/2000/svg" xmlns:xlink="http://www.w3.org/1999/xlink" version="1.1"><path d="M0 92L14.5 86.3C29 80.7 58 69.3 87.2 64C116.3 58.7 145.7 59.3 174.8 65.5C204 71.7 233 83.3 262 86.7C291 90 320 85 349 79.7C378 74.3 407 68.7 436.2 70.7C465.3 72.7 494.7 82.3 523.8 82.5C553 82.7 582 73.3 611 71C640 68.7 669 73.3 698 77C727 80.7 756 83.3 785.2 81.2C814.3 79 843.7 72 872.8 74.5C902 77 931 89 945.5 95L960 101L960 0L945.5 0C931 0 902 0 872.8 0C843.7 0 814.3 0 785.2 0C756 0 727 0 698 0C669 0 640 0 611 0C582 0 553 0 523.8 0C494.7 0 465.3 0 436.2 0C407 0 378 0 349 0C320 0 291 0 262 0C233 0 204 0 174.8 0C145.7 0 116.3 0 87.2 0C58 0 29 0 14.5 0L0 0Z" fill="#C62368" stroke-linecap="round" stroke-linejoin="miter"></path></svg>