<svg id="visual" viewBox="0 0 960 540" width="960" height="540" xmlns="http://www.w3.org/2000/svg" xmlns:xlink="http://www.w3.org/1999/xlink" version="1.1"><path d="M0 118L22.8 108.8C45.7 99.7 91.3 81.3 137 80C182.7 78.7 228.3 94.3 274 95.2C319.7 96 365.3 82 411.2 77.8C457 73.7 503 79.3 548.8 78.3C594.7 77.3 640.3 69.7 686 71.8C731.7 74 777.3 86 823 95.5C868.7 105 914.3 112 937.2 115.5L960 119L960 0L937.2 0C914.3 0 868.7 0 823 0C777.3 0 731.7 0 686 0C640.3 0 594.7 0 548.8 0C503 0 457 0 411.2 0C365.3 0 319.7 0 274 0C228.3 0 182.7 0 137 0C91.3 0 45.7 0 22.8 0L0 0Z" fill="#9044f4" stroke-linecap="round" stroke-linejoin="miter"></path></svg>